<?xml version="1.0" encoding="UTF-8"?><svg id="a" xmlns="http://www.w3.org/2000/svg" viewBox="0 0 850.39 283.46"><defs><style>.b{fill:#aa64a3;}.c{fill:#282828;}</style></defs><g><path class="c" d="M180.64,46.44l-23.79,93.01c-.14,.56-.65,.95-1.22,.95h-3.04c-.57,0-1.07-.38-1.22-.94l-23.48-88.44c-.15-.55-.65-.94-1.22-.94h-8.49c-.58,0-1.09,.4-1.23,.96l-21.33,88.38c-.14,.57-.64,.96-1.23,.96h-3.17c-.57,0-1.06-.38-1.21-.92l-25.81-93.06c-.15-.55-.65-.92-1.21-.92h-5.04c-.84,0-1.44,.8-1.21,1.6l28,99.22c.15,.54,.65,.92,1.21,.92h13.66c.58,0,1.09-.4,1.22-.96l20.42-83.71c.31-1.27,2.11-1.29,2.44-.02l22.23,83.76c.15,.55,.65,.94,1.22,.94h13.8c.57,0,1.08-.39,1.22-.94l25.82-99.22c.21-.8-.39-1.58-1.22-1.58h-4.92c-.58,0-1.08,.39-1.22,.95Z"/><path class="c" d="M305.62,46.76v45.42c0,.7-.56,1.26-1.26,1.26h-61.03c-.7,0-1.26-.56-1.26-1.26V46.76c0-.7-.56-1.26-1.26-1.26h-5c-.7,0-1.26,.56-1.26,1.26v99.22c0,.7,.56,1.26,1.26,1.26h5c.7,0,1.26-.56,1.26-1.26v-44.31c0-.7,.56-1.26,1.26-1.26h61.03c.7,0,1.26,.56,1.26,1.26v44.31c0,.7,.56,1.26,1.26,1.26h5c.7,0,1.26-.56,1.26-1.26V46.76c0-.7-.56-1.26-1.26-1.26h-5c-.7,0-1.26,.56-1.26,1.26Z"/><path class="c" d="M508.07,149.6c-8.64,0-15.84-1.37-21.61-4.11-5.76-2.74-10.08-6.5-12.96-11.29-2.67-4.44-4.1-9.41-4.3-14.92-.03-.71,.57-1.31,1.28-1.31h5.01c.68,0,1.21,.54,1.24,1.22,.18,4.16,1.26,7.94,3.25,11.32,2.18,3.71,5.6,6.67,10.24,8.85,4.64,2.19,10.59,3.28,17.84,3.28,6.78,0,12.45-.98,17-2.93,4.55-1.95,7.97-4.62,10.24-8.01,2.28-3.39,3.41-7.32,3.41-11.78,0-5.48-2.04-10.15-6.13-14.01-4.09-3.85-10.31-6.2-18.67-7.04l-12.12-.98c-8.46-.74-15.15-3.44-20.07-8.08-4.93-4.64-7.39-10.74-7.39-18.26,0-5.39,1.26-10.24,3.77-14.56,2.51-4.32,6.27-7.76,11.29-10.32,5.01-2.55,11.19-3.83,18.53-3.83s13.71,1.37,18.82,4.11c5.11,2.74,8.99,6.41,11.64,11.01,2.45,4.25,3.76,8.99,3.95,14.23,.03,.71-.57,1.31-1.28,1.31h-5.02c-.67,0-1.2-.54-1.23-1.21-.16-3.72-1.08-7.19-2.76-10.42-1.86-3.57-4.76-6.48-8.71-8.71-3.95-2.23-9.08-3.35-15.4-3.35s-11.1,1-14.91,3c-3.81,2-6.62,4.64-8.43,7.94-1.81,3.29-2.72,6.9-2.72,10.8,0,5.57,1.79,10.04,5.37,13.38,3.57,3.34,8.71,5.34,15.4,5.99l12.12,.98c6.78,.56,12.52,2.12,17.22,4.67,4.69,2.55,8.24,5.83,10.66,9.82,2.41,4,3.62,8.5,3.62,13.52,0,5.67-1.49,10.76-4.46,15.26-2.97,4.51-7.29,8.04-12.96,10.59-5.67,2.55-12.6,3.83-20.77,3.83Z"/><path class="c" d="M632.68,149.6c-8.55,0-16.05-1.56-22.51-4.67-6.46-3.11-11.85-7.24-16.17-12.4-4.32-5.15-7.57-10.8-9.75-16.93-2.18-6.13-3.28-12.26-3.28-18.4v-2.23c0-6.41,1.14-12.68,3.42-18.82,2.27-6.13,5.62-11.73,10.03-16.79,4.41-5.06,9.8-9.08,16.17-12.06,6.36-2.97,13.73-4.46,22.09-4.46s15.58,1.49,21.95,4.46c6.36,2.98,11.75,6.99,16.17,12.06,4.41,5.06,7.74,10.66,9.96,16.79,2.23,6.14,3.35,12.41,3.35,18.82v2.23c0,6.14-1.09,12.27-3.28,18.4-2.18,6.14-5.41,11.78-9.69,16.93-4.28,5.16-9.62,9.29-16.03,12.4-6.41,3.11-13.89,4.67-22.44,4.67Zm0-6.97c6.97,0,13.17-1.3,18.61-3.9s10.04-6.11,13.8-10.53c3.77-4.41,6.6-9.38,8.5-14.91,1.91-5.53,2.86-11.22,2.86-17.08s-1-11.98-2.99-17.56c-2-5.57-4.88-10.53-8.64-14.85-3.77-4.32-8.36-7.74-13.8-10.24-5.44-2.51-11.55-3.77-18.33-3.77-6.88,0-13.03,1.26-18.46,3.77-5.44,2.51-10.06,5.92-13.87,10.24-3.81,4.32-6.71,9.27-8.71,14.85-2,5.57-3,11.43-3,17.56s.98,11.55,2.93,17.08c1.95,5.53,4.81,10.5,8.57,14.91,3.76,4.42,8.36,7.92,13.8,10.53,5.43,2.6,11.68,3.9,18.74,3.9Z"/><path class="b" d="M397.88,114.59c-8.54,0-15.48-6.94-15.48-15.48s6.94-15.48,15.48-15.48,15.48,6.94,15.48,15.48-6.94,15.48-15.48,15.48Zm0-24.32c-4.87,0-8.84,3.96-8.84,8.84s3.96,8.84,8.84,8.84,8.84-3.96,8.84-8.84-3.96-8.84-8.84-8.84Z"/><path class="c" d="M793.42,145.18l-30.29-37.42c-.59-.73-.19-1.8,.73-2.01,2.71-.62,5.18-1.48,7.38-2.62,4.93-2.56,8.6-6.08,11.01-10.59,2.42-4.51,3.62-9.73,3.62-15.68v-1.67c0-5.94-1.21-11.17-3.62-15.68-2.42-4.5-6.09-8.04-11.01-10.59-4.92-2.56-11.1-3.83-18.53-3.83h-29.12c-.7,0-1.26,.56-1.26,1.26v99.64c0,.7,.57,1.26,1.26,1.26h5c.7,0,1.26-.56,1.26-1.26V53.16c0-.7,.56-1.26,1.26-1.26h22.57c5.85,0,10.56,1.07,14.14,3.2,3.58,2.14,6.23,5.04,7.94,8.71,1.72,3.67,2.58,7.73,2.58,12.2s-.86,8.52-2.58,12.19c-1.72,3.67-4.37,6.57-7.94,8.71-3.58,2.14-8.29,3.2-14.14,3.2h-4.08c-.47,0-.86,.38-.86,.85,0,.19,.1,.33,.2,.47l36.55,45.31c.24,.3,.6,.47,.98,.47h5.95c1.06,0,1.65-1.23,.98-2.05Z"/><rect class="c" x="394.56" y="122.41" width="6.64" height="24.82" rx="1.27" ry="1.27"/><g><path class="c" d="M384.06,79.53c-10.56-27.81-24.73-29.09-28.68-28.86-.61,.04-1.15-.39-1.29-.99l-.9-4.04c-.17-.74,.35-1.47,1.1-1.54,5.22-.49,23.56,.34,36,33.12,.22,.58-.08,1.25-.66,1.46l-4.13,1.52c-.58,.21-1.22-.09-1.43-.67Z"/><path class="c" d="M442.13,47.54l-.46,2.13c-.13,.6-.67,1.03-1.29,1-3.96-.23-18.12,1.06-28.68,28.86-.22,.58-.86,.88-1.43,.67l-4.13-1.52c-.59-.22-.88-.88-.66-1.46,12.43-32.75,30.76-33.6,35.99-33.12,.76,.07,1.27,.8,1.1,1.55l-.44,1.9Z"/></g></g><g><polygon class="b" points="265.16 212.82 281.45 212.82 281.45 210.3 265.16 210.3 265.16 195.92 282.66 195.92 282.66 193.45 262.44 193.45 262.44 230.28 283.27 230.28 283.27 227.8 265.16 227.8 265.16 212.82"/><polygon class="b" points="301.25 228.01 299.76 228.01 291.09 203.79 288.27 203.79 297.9 230.28 298.71 230.28 300.52 230.28 300.57 230.28 302.39 230.28 303.1 230.28 311.62 203.79 309 203.79 301.25 228.01"/><path class="b" d="M335.66,204.78c-1.83-1.19-4.09-1.79-6.78-1.79-2.12,0-3.98,.38-5.57,1.14-1.6,.76-2.93,1.8-3.99,3.13-1.06,1.33-1.85,2.8-2.37,4.41-.52,1.61-.78,3.3-.78,5.04v.5c0,1.72,.26,3.4,.78,5.07,.52,1.66,1.3,3.16,2.35,4.49,1.04,1.33,2.39,2.39,4.04,3.18,1.65,.79,3.6,1.19,5.85,1.19,2.12,0,3.98-.35,5.57-1.06,1.6-.71,2.92-1.7,3.96-2.98,1.04-1.28,1.75-2.74,2.12-4.39h-2.62c-.34,1.65-1.29,3.06-2.85,4.24-1.56,1.18-3.62,1.77-6.18,1.77-2.39,0-4.35-.55-5.9-1.64-1.55-1.09-2.7-2.52-3.46-4.29-.71-1.67-1.08-3.49-1.12-5.47h22.53v-1.82c0-2.12-.47-4.14-1.41-6.05-.94-1.92-2.33-3.47-4.16-4.67Zm-15.84,6.38c.76-1.75,1.89-3.14,3.41-4.19,1.51-1.04,3.4-1.56,5.65-1.56,2.08,0,3.86,.46,5.32,1.39,1.46,.93,2.57,2.2,3.33,3.81,.63,1.34,.98,2.85,1.09,4.49h-19.81c.16-1.4,.49-2.72,1.02-3.94Z"/><path class="b" d="M353.19,206.42c-1.04,1.14-1.76,2.65-2.17,4.51v-7.13h-2.12v26.48h2.67v-14.83c0-3.09,.79-5.44,2.37-7.04,1.58-1.6,3.94-2.4,7.06-2.4h1.41v-2.42h-.91c-3.83,0-6.61,.94-8.32,2.82Z"/><polygon class="b" points="365.09 193.45 365.09 195.72 369.08 195.72 369.08 230.28 371.75 230.28 371.75 193.45 365.09 193.45"/><path class="b" d="M395.96,204.58c-1.58-.69-3.7-1.03-6.35-1.03-.71,0-1.45,.02-2.22,.05-.77,.03-1.54,.08-2.3,.15-.76,.07-1.47,.15-2.14,.25v2.42c.67-.1,1.43-.18,2.27-.23,.84-.05,1.73-.1,2.67-.15,.94-.05,1.87-.07,2.77-.07,2.56,0,4.39,.58,5.5,1.74,1.11,1.16,1.66,2.8,1.66,4.92v1.92h-8.07c-2.12,0-3.93,.32-5.42,.96-1.5,.64-2.64,1.56-3.43,2.77-.79,1.21-1.19,2.67-1.19,4.39s.41,3.3,1.24,4.54c.82,1.24,1.94,2.19,3.36,2.82,1.41,.64,3.01,.96,4.79,.96s3.38-.34,4.79-1.01c1.41-.67,2.56-1.69,3.45-3.05,.42-.64,.74-1.36,.98-2.15v5.5h2.12v-17.25c0-2.15-.35-3.93-1.06-5.32-.71-1.4-1.85-2.44-3.43-3.13Zm.5,20.88c-.84,1.19-1.88,2.04-3.13,2.55-1.25,.5-2.52,.76-3.83,.76-2.12,0-3.83-.55-5.14-1.64-1.31-1.09-1.97-2.58-1.97-4.46,0-1.78,.61-3.22,1.84-4.31,1.23-1.09,2.99-1.64,5.27-1.64h8.32v3.94c-.07,2.02-.52,3.62-1.36,4.82Z"/><path class="b" d="M426.26,217.77c-1.63-1.21-3.69-1.93-6.18-2.17l-3.13-.35c-1.75-.2-3.05-.72-3.91-1.56-.86-.84-1.29-1.85-1.29-3.03,0-1.41,.55-2.64,1.64-3.68,1.09-1.04,2.76-1.56,5.02-1.56s3.81,.49,4.97,1.46c1.16,.98,1.72,2.19,1.69,3.63h2.62c-.03-2.32-.9-4.15-2.6-5.5-1.7-1.34-3.93-2.02-6.68-2.02-1.88,0-3.52,.34-4.92,1.01-1.4,.67-2.46,1.58-3.2,2.72-.74,1.14-1.11,2.44-1.11,3.88,0,2.02,.68,3.62,2.04,4.79,1.36,1.18,3.2,1.9,5.52,2.17l3.13,.35c1.92,.2,3.44,.71,4.57,1.51s1.69,1.97,1.69,3.48-.62,2.88-1.87,4.01c-1.25,1.13-3.2,1.69-5.85,1.69s-4.68-.56-5.88-1.69c-1.19-1.13-1.79-2.45-1.79-3.96h-2.62c.03,2.35,.93,4.29,2.7,5.8,1.77,1.51,4.3,2.27,7.59,2.27,2.19,0,4.04-.36,5.55-1.08,1.51-.72,2.68-1.69,3.51-2.9,.82-1.21,1.24-2.57,1.24-4.09,0-2.25-.82-3.99-2.45-5.2Z"/><path class="b" d="M440.1,195.17h-2.62v8.63h-5.04v2.17h5.04v16.6c0,1.99,.33,3.57,1.01,4.74,.67,1.18,1.63,2.01,2.88,2.5,1.24,.49,2.69,.73,4.34,.73h4.39v-2.42h-4.94c-1.58,0-2.82-.45-3.71-1.34-.89-.89-1.34-2.14-1.34-3.76v-17.05h9.99v-2.17h-9.99v-8.63Z"/><polygon class="b" points="454.93 203.79 454.93 206.11 459.32 206.11 459.32 230.28 462.05 230.28 462.05 203.79 454.93 203.79"/><path class="b" d="M459.58,198.24c.74,0,1.29-.19,1.66-.58,.37-.39,.56-.88,.56-1.49,0-.64-.19-1.16-.56-1.56-.37-.4-.92-.61-1.66-.61s-1.25,.2-1.62,.61c-.37,.4-.55,.93-.55,1.56,0,.6,.18,1.1,.55,1.49,.37,.39,.91,.58,1.62,.58Z"/><path class="b" d="M484.24,203.09h-.15c-2.22,0-4.08,.48-5.57,1.44-1.5,.96-2.62,2.3-3.38,4.04-.21,.47-.38,.98-.53,1.49v-6.26h-2.12v26.48h2.67v-15.99c0-2.62,.76-4.73,2.29-6.33,1.53-1.6,3.59-2.4,6.18-2.4s4.52,.78,5.88,2.35c1.36,1.56,2.04,3.61,2.04,6.13v16.24h2.72v-15.64c0-3.56-.84-6.38-2.52-8.45-1.68-2.07-4.19-3.1-7.52-3.1Z"/><path class="b" d="M525.76,210.24c-.15-.37-.3-.74-.48-1.1-.96-1.88-2.33-3.38-4.11-4.49-1.78-1.11-3.9-1.66-6.35-1.66-2.02,0-3.82,.38-5.4,1.14-1.58,.76-2.91,1.78-3.98,3.08-1.08,1.29-1.9,2.76-2.47,4.39-.57,1.63-.86,3.3-.86,5.02v.5c0,1.75,.29,3.46,.86,5.12,.57,1.66,1.4,3.14,2.47,4.44,1.08,1.3,2.4,2.32,3.96,3.08,1.56,.76,3.34,1.14,5.32,1.14,2.35,0,4.41-.53,6.16-1.59,1.75-1.06,3.12-2.51,4.11-4.36,.12-.23,.22-.48,.33-.72v3.45c0,2.59-.33,4.67-1.01,6.23-.67,1.56-1.78,2.69-3.33,3.38-1.55,.69-3.67,1.03-6.36,1.03-1.18,0-2.43-.06-3.76-.18-1.33-.12-2.6-.28-3.81-.48v2.37c1.18,.2,2.4,.35,3.68,.45,1.28,.1,2.5,.15,3.68,.15,3.29,0,5.94-.42,7.92-1.26,1.98-.84,3.41-2.21,4.29-4.11,.87-1.9,1.31-4.43,1.31-7.59v-23.86h-2.17v6.45Zm-1.72,13.15c-.87,1.56-2.08,2.79-3.63,3.68-1.55,.89-3.33,1.34-5.35,1.34-2.12,0-3.95-.51-5.47-1.54-1.53-1.03-2.72-2.42-3.56-4.19-.84-1.77-1.26-3.71-1.26-5.83s.4-3.95,1.21-5.7c.81-1.75,1.97-3.16,3.51-4.24,1.53-1.08,3.41-1.61,5.62-1.61,2.02,0,3.8,.45,5.35,1.36,1.55,.91,2.75,2.13,3.61,3.66,.86,1.53,1.29,3.25,1.29,5.17v2.57c0,1.98-.44,3.76-1.31,5.32Z"/><rect class="b" x="551.13" y="193.45" width="2.73" height="36.83"/><polygon class="b" points="587.96 193.45 561.63 193.45 561.63 195.92 573.43 195.92 573.43 230.28 576.15 230.28 576.15 195.92 587.96 195.92 587.96 193.45"/></g></svg>